# Alias OBJ Model File
# Exported from SketchUp, (c) 2000-2012 Trimble Navigation Limited
# File units = meters

mtllib flag.mtl

g Mesh1 Model

usemtl FrontColor
v 3.06532 0 -3.05491
vt -120.682 120.272
vn 0 -1 -0
v -3.05068 0 3.06109
vt 120.105 -120.515
v -3.05068 0 -3.05491
vt 120.105 120.272
f 1/1/1 2/2/1 3/3/1

v 3.06532 0 3.06109
vt -120.682 -120.515
f 2/2/1 1/1/1 4/4/1

vt 120.272 -2.4971e-046
vn 1 2.06916e-048 -2.36073e-016
v 3.06532 0.787 3.06109
vt -120.515 30.9843
vt -120.515 -2.4971e-046
f 1/5/2 5/6/2 4/7/2

v 3.06532 0.787 0.00309022
vt -0.121662 30.9843
f 5/6/2 1/5/2 6/8/2

v 3.06532 0.787 -3.05491
vt 120.272 30.9843
f 6/8/2 1/5/2 7/9/2

vt -120.682 0
vn 0 0 -1
v -3.05068 0.787 -3.05491
vt 120.105 30.9843
vt -120.682 30.9843
f 1/10/3 8/11/3 7/12/3

vt 120.105 0
f 8/11/3 1/10/3 3/13/3

vt -120.272 0
vn -1 0 -0
v -3.05068 0.787 0.00309022
vt 0.121662 30.9843
vt -120.272 30.9843
f 3/14/4 9/15/4 8/16/4

vt 120.515 0
f 2/17/4 9/15/4 3/14/4

v -3.05068 0.787 3.06109
vt 120.515 30.9843
f 9/15/4 2/17/4 10/18/4

vt -120.105 0
vn 0 0 1
vt 120.682 30.9843
vt -120.105 30.9843
f 2/19/5 5/20/5 10/21/5

vt 120.682 0
f 5/20/5 2/19/5 4/22/5

v 0.00732357 0.787 3.06109
vt 0.288329 30.9843
f 10/21/5 5/20/5 11/23/5

v 0.6694 0.787 0.38534
vt 26.3543 -15.1709
vn 0 1 -0
vt 0.288329 -120.515
vt 120.682 -120.515
f 12/24/6 11/25/6 5/26/6

v 0.00732357 0.787 0.76759
vt 0.288329 -30.2201
f 11/25/6 12/24/6 13/27/6

v 0.6694 8.762 0.38534
vt 15.2381 344.961
vn 0.5 0 0.866025
vt -14.8603 30.9843
vt 15.2381 30.9843
f 14/28/7 13/29/7 12/30/7

v 0.00732357 8.762 0.76759
vt -14.8603 344.961
f 13/29/7 14/28/7 15/31/7

v 0.6694 8.762 0.00309022
vt 26.3543 -0.121662
f 16/32/6 15/27/6 14/24/6

v 0.6694 8.762 -0.37916
vt 26.3543 14.9276
f 17/33/6 15/27/6 16/32/6

v 0.00732357 8.762 -0.37916
vt 0.288329 14.9276
f 15/27/6 17/33/6 18/34/6

v 0.338362 8.762 -0.570285
vt 13.3213 22.4522
f 19/35/6 18/34/6 17/33/6

v -0.324204 8.762 -0.570002
vt -12.7639 22.441
f 20/36/6 18/34/6 19/35/6

v -0.654753 8.762 -0.37916
vt -25.7777 14.9276
f 18/34/6 20/36/6 21/37/6

v 0.00732357 8.762 -0.76141
vt -15.2381 344.961
vn -0.5 1.5065e-017 -0.866025
vt 14.8603 344.961
vt -0.166631 344.961
f 22/38/8 21/39/8 20/40/8

v 0.00732357 0.787 -0.76141
vt -15.2381 30.9843
f 23/41/8 21/39/8 22/38/8

v -0.654753 0.787 -0.37916
vt 14.8603 30.9843
f 21/39/8 23/41/8 24/42/8

v 0.00732357 0.787 -3.05491
vt 0.288329 120.272
vt 0.288329 29.9768
f 25/43/6 24/37/6 23/44/6

vt -120.105 120.272
f 24/37/6 25/43/6 8/45/6

vt -0.288329 30.9843
f 7/12/3 8/11/3 25/46/3

vt 120.682 120.272
f 23/44/6 7/47/6 25/43/6

v 0.6694 0.787 -0.37916
f 7/47/6 23/44/6 26/33/6

vt 14.7387 344.961
vn 0.5 3.32909e-018 -0.866025
vt -15.3597 30.9843
vt 14.7387 30.9843
f 22/48/9 26/49/9 23/50/9

vt -15.3597 344.961
f 26/49/9 22/48/9 17/51/9

vt -0.310532 344.961
f 17/51/9 22/48/9 19/52/9

v -0.323715 8.762 -0.570285
vt -12.7447 22.4522
f 19/35/6 22/44/6 27/53/6

v 0.338362 8.762 -2.16028
vt 13.3213 85.0506
f 28/54/6 22/44/6 19/35/6

v -0.323715 8.762 -2.14428
vt -12.7447 84.4207
f 29/55/6 22/44/6 28/54/6

f 22/44/6 29/55/6 27/53/6

vt 22.4522 344.961
vn 1 0 -0
v -0.323715 7.188 -2.14428
vt 84.4207 282.992
vt 84.4207 344.961
f 27/56/10 30/57/10 29/58/10

v -0.323715 7.188 -0.570285
vt 22.4522 282.992
f 30/57/10 27/56/10 31/59/10

vt 12.7447 344.961
vn -4.77039e-016 -1.43327e-016 -1
v 0.338362 7.188 -0.570285
vt -13.3213 282.992
vt 12.7447 282.992
f 27/60/11 32/61/11 31/62/11

vt -13.3213 344.961
f 32/61/11 27/60/11 19/63/11

f 19/35/6 27/53/6 20/36/6

vt -0.18887 344.961
f 22/38/8 20/40/8 27/64/8

vt -12.7544 344.961
vn 0.000426275 8.12923e-017 1
vt 13.3309 282.992
vt 13.3309 344.961
f 20/65/12 32/66/12 19/67/12

v -0.324204 7.18286 -0.570002
vt -12.7544 282.79
f 33/68/12 32/66/12 20/65/12

v 0.338362 7.18286 -0.570285
vt 13.3309 282.79
f 32/66/12 33/68/12 34/69/12

vt 22.4522 282.79
v 0.338362 7.188 -2.16028
vt 85.0506 282.992
vt 22.4522 282.992
f 34/70/10 35/71/10 32/72/10

v 0.338362 7.172 -2.16028
vt 85.0506 282.362
f 35/71/10 34/70/10 36/73/10

v 0.338362 7.172 -0.570285
vt 22.4522 282.362
f 36/73/10 34/70/10 37/74/10

vt 22.4522 344.961
f 35/71/10 19/75/10 32/72/10

vt 85.0506 344.961
f 19/75/10 35/71/10 28/76/10

vt 15.3722 344.961
vn 0.0241593 0 0.999708
vt -10.7014 282.992
vt 15.3722 282.992
f 28/77/13 30/78/13 35/79/13

vt -10.7014 344.961
f 30/78/13 28/77/13 29/80/13

vt 13.3213 22.4522
f 30/55/6 32/81/6 35/54/6

f 32/81/6 30/55/6 31/53/6

v -0.323715 7.188 -2.16028
vt -12.7447 85.0506
f 35/54/6 38/82/6 30/55/6

vt -0.121662 344.961
vn 1 0 -7.08219e-016
vt 14.9276 30.9843
vt 14.9276 344.961
f 16/83/14 26/84/14 17/85/14

v 0.6694 0.787 0.00309022
vt -0.121662 30.9843
f 26/84/14 16/83/14 39/86/14

vt -15.1709 344.961
vn 1 0 -1.18037e-015
vt -0.121662 30.9843
vt -0.121662 344.961
f 14/87/15 39/88/15 16/89/15

vt -15.1709 30.9843
f 39/88/15 14/87/15 12/90/15

vt 120.682 -0.121662
f 6/91/6 39/32/6 12/24/6

f 7/47/6 39/32/6 6/91/6

f 7/47/6 26/33/6 39/32/6

f 12/24/6 5/26/6 6/91/6

v -0.654753 0.787 0.00309022
vt -25.7777 -0.121662
f 8/45/6 40/92/6 24/37/6

vt -120.105 -0.121662
f 40/92/6 8/45/6 9/93/6

v -0.654753 0.787 0.38534
vt -25.7777 -15.1709
f 40/92/6 9/93/6 41/94/6

f 9/93/6 11/25/6 41/94/6

vt -120.105 -120.515
f 11/25/6 9/93/6 10/95/6

f 41/94/6 11/25/6 13/27/6

vt 15.3597 344.961
vn -0.5 0 0.866025
vt -14.7387 30.9843
vt 15.3597 30.9843
f 15/96/16 41/97/16 13/98/16

v -0.654753 8.762 0.38534
vt -14.7387 344.961
f 41/97/16 15/96/16 42/99/16

v -0.654753 8.762 0.00309022
f 15/27/6 43/92/6 42/94/6

f 43/92/6 15/27/6 18/34/6

f 18/34/6 21/37/6 43/92/6

vt -14.9276 344.961
vn -1 0 4.72146e-016
vt 0.121662 30.9843
vt 0.121662 344.961
f 21/100/17 40/101/17 43/102/17

vt -14.9276 30.9843
f 40/101/17 21/100/17 24/103/17

vt 15.1709 30.9843
vt 0.121662 344.961
vt 0.121662 30.9843
f 41/104/4 43/105/4 40/106/4

vt 15.1709 344.961
f 43/105/4 41/104/4 42/107/4

